HIERARCHY
ROOT Hips
{
    OFFSET 0.000000 0.000000 0.000000
    CHANNELS 6 Xposition Yposition Zposition Zrotation Xrotation Yrotation
        JOINT Chest
        {
            OFFSET -0.000000 31.804140 -0.000000
            CHANNELS 3 Zrotation Xrotation Yrotation
            JOINT Neck
            {
                OFFSET -0.000000 23.903318 0.000000
                CHANNELS 3 Zrotation Xrotation Yrotation
                JOINT Head
                {
                    OFFSET -0.000000 10.511110 0.000000
                    CHANNELS 3 Zrotation Xrotation Yrotation
                    End Site
                    {
                        OFFSET -0.000000 16.244448 0.000000
                    }
                }
            }
            JOINT LeftCollar
            {
                OFFSET -0.000000 23.903318 0.000000
                CHANNELS 3 Zrotation Xrotation Yrotation
                JOINT LeftShoulder
                {
                    OFFSET 20.500000 -0.000000 0.000000
                    CHANNELS 3 Zrotation Xrotation Yrotation
                    JOINT LeftElbow
                    {
                        OFFSET 20.922438 0.000000 0.000000
                        CHANNELS 3 Zrotation Xrotation Yrotation
                        JOINT LeftWrist
                        {
                            OFFSET 26.373112 0.000000 0.000000
                            CHANNELS 3 Zrotation Xrotation Yrotation
                            End Site
                            {
                                OFFSET 0.000000 -14.333333 0.000000
                            }
                        }
                    }
                }
            }
            JOINT RightCollar
            {
                OFFSET -0.000000 23.903318 0.000000
                CHANNELS 3 Zrotation Xrotation Yrotation
                JOINT RightShoulder
                {
                    OFFSET -20.500000 0.000000 0.000000
                    CHANNELS 3 Zrotation Xrotation Yrotation
                    JOINT RightElbow
                    {
                        OFFSET -20.922438 0.000000 0.000000
                        CHANNELS 3 Zrotation Xrotation Yrotation
                        JOINT RightWrist
                        {
                            OFFSET -26.373112 0.000000 0.000000
                            CHANNELS 3 Zrotation Xrotation Yrotation
                            End Site
                            {
                                OFFSET -0.000000 -14.333333 0.000000
                            }
                        }
                    }
                }
            }
        }
    JOINT LeftHip
    {
        OFFSET 11.466667 0.000000 0.000000
        CHANNELS 3 Zrotation Xrotation Yrotation
        JOINT LeftKnee
        {
            OFFSET -0.000000 -37.458855 0.000000
            CHANNELS 3 Zrotation Xrotation Yrotation
            JOINT LeftAnkle
            {
                OFFSET -0.000000 -39.235966 0.000000
                CHANNELS 3 Zrotation Xrotation Yrotation
                End Site
                {
                    OFFSET -0.000000 -4.777778 16.244448
                }
            }
        }
    }
    JOINT RightHip
    {
        OFFSET -11.466667 0.000000 0.000000
        CHANNELS 3 Zrotation Xrotation Yrotation
        JOINT RightKnee
        {
            OFFSET -0.000000 -37.458855 0.000000
            CHANNELS 3 Zrotation Xrotation Yrotation
            JOINT RightAnkle
            {
                OFFSET -0.000000 -39.235966 0.000000
                CHANNELS 3 Zrotation Xrotation Yrotation
                End Site
                {
                    OFFSET -0.000000 -4.777778 16.244448
                }
            }
        }
    }
}
MOTION
Frames:    5
Frame Time:    0.010000
43.490841    86.989197    -11.556167    -6.376369    2.776731    -51.210964    1.522656    7.032526    -1.101757    -7.657599    11.331636    -10.974481    17.262865    -29.739027    -7.267347    6.281314    -0.395050    -7.117551    -21.766216    -14.362514    -11.670197    22.841904    -6.419419    -30.288971    117.522949    6.444426    54.924644    -10.333241    -1.126079    13.686264    8.354886    -15.856394    18.814089    -17.636803    -1.451410    9.475355    -147.511993    60.536129    -12.672138    22.645393    -14.176861    -4.587050    -12.965902    36.648628    10.464905    -7.992482    0.274415    12.006703    -8.345800    3.323531    -5.308905    -4.829898    37.682888    -13.774262    16.396801    17.561527    -15.922844    
43.237453    87.359497    -11.416399    -6.531887    2.761691    -49.978241    0.523927    6.773654    0.266776    -8.315178    11.166847    -12.336348    18.426424    -27.546743    -8.744888    6.144118    -0.358193    -6.947441    -22.915318    -14.364608    -14.288852    23.483582    -6.590212    -30.201002    117.783653    7.537451    57.069016    -9.600174    -1.085325    14.425492    8.149285    -13.983716    20.270044    -17.506119    -1.489341    9.874414    -149.012543    60.218006    -12.078280    22.241007    -14.555040    -5.743587    -12.340771    36.570858    9.887739    -8.351571    1.398224    12.197882    -7.511304    3.999584    -6.200601    -4.246808    38.126465    -14.112712    16.265594    18.025820    -15.435407    
43.001671    87.704857    -11.276616    -6.638279    2.696923    -48.883831    -0.559762    6.488400    1.803708    -9.064444    11.032704    -13.579605    19.551004    -25.260090    -10.173870    5.952406    -0.369619    -6.785867    -24.299341    -14.363491    -17.006500    24.205292    -6.818369    -30.348589    117.978722    8.931638    59.278336    -8.820287    -1.039459    15.312013    7.935641    -11.988380    21.968920    -17.250778    -1.504430    10.201040    -149.681595    59.608814    -11.848627    21.904718    -15.108449    -6.984981    -12.137879    36.747650    9.777452    -8.760982    2.676886    12.301268    -6.745434    4.656123    -7.014593    -3.653080    38.431187    -14.573909    16.131643    18.361156    -15.000679    
42.781986    88.014137    -11.132324    -6.694016    2.584261    -47.933220    -1.741224    6.183369    3.501473    -9.828526    10.975939    -14.697925    20.602484    -22.978607    -11.541723    5.735373    -0.309518    -6.668550    -25.926277    -14.404285    -19.772942    24.897076    -7.071275    -30.746283    118.103378    10.430416    61.283649    -8.007672    -0.981675    16.270496    7.731186    -9.817258    23.912552    -16.882380    -1.490697    10.399558    -149.327286    58.808723    -12.014131    21.664505    -15.839375    -8.233520    -12.387568    37.180244    10.130110    -9.199943    4.067720    12.286927    -6.058665    5.292238    -7.758039    -3.096353    38.627583    -15.087387    15.949266    18.531977    -14.564571    
42.575203    88.274818    -10.978529    -6.698553    2.427671    -47.128521    -3.030815    5.878011    5.355627    -10.525745    11.032921    -15.696421    21.532997    -20.817175    -12.832752    5.495375    -0.309685    -6.640250    -27.695049    -14.327074    -22.387756    25.622217    -7.416445    -31.539516    118.153824    12.096909    63.073380    -7.184583    -0.917690    17.216824    7.557496    -7.439054    26.079245    -16.433855    -1.468457    10.472975    -147.865768    57.932480    -12.567959    21.543909    -16.734488    -9.404486    -13.095695    37.844357    10.909290    -9.655159    5.495073    12.144865    -5.459632    5.905578    -8.434896    -2.618484    38.751041    -15.586067    15.670650    18.505945    -14.072956    
